# xmcd CD database file
#
# Track frame offsets:
#	150
#	11434
#	25777
#	45827
#	64196
#	76469
#	90416
#	103417
#	122071
#	147350
#	169410
#	190818
#	207311
#	225720
#	242144
#
# Disc length: 3453 seconds
#
# Revision: 1
# Processed by: cddbd v1.5.2PL0 Copyright (c) Steve Scherf et al.
# Submitted via: jetAudio 7
#
DISCID=c60d7b0f
DTITLE=Various Artist - 아주 특별한 영화음악(Cinema and New Age) CD1
DYEAR=2006
DGENRE=New Age
TTITLE0=Gabriel's oboe - David Agnew
TTITLE1=All I ask of You - Silvard
TTITLE2=Both Sides Now - Aoife
TTITLE3=The Promise - Los Dioses
TTITLE4=Theme from 'scent of a Woman' - David Agnew
TTITLE5=Harrys Game - Phil Coulter
TTITLE6=Ave Maria - David Agnew
TTITLE7=Over the Rainbow - Silvard
TTITLE8=Cal - Phil coulter
TTITLE9=Chi Mai - Los Dioses
TTITLE10=Don't Cry for Me Argentina - Silvard
TTITLE11=Walking in the Air - Los Dioses
TTITLE12=Lara's Theme - Silvard
TTITLE13=Merry Christmas Mr. Lawrence - Los Dioses
TTITLE14=The Water is Wide - Phil Coulter
EXTD=YEAR: 2006
EXTT0=
EXTT1=
EXTT2=
EXTT3=
EXTT4=
EXTT5=
EXTT6=
EXTT7=
EXTT8=
EXTT9=
EXTT10=
EXTT11=
EXTT12=
EXTT13=
EXTT14=
PLAYORDER=
